<svg width="80" height="78" viewBox="0 0 80 78" fill="none" xmlns="http://www.w3.org/2000/svg">
<path d="M75.0041 65.8871V61.4693H27.0083V65.8871C27.0083 71.3762 31.4581 75.826 36.9472 75.826H65.065C70.5544 75.8262 75.0041 71.3763 75.0041 65.8871Z" fill="#F2995E"/>
<path d="M55.1556 23.4287H45.7817C34.8197 23.4287 25.9333 32.3151 25.9333 43.2771V44.0996H75.004V43.2771C75.004 32.3152 66.1176 23.4287 55.1556 23.4287Z" fill="#FF8859"/>
<path d="M63.575 39.8521C63.4734 39.8521 63.3718 39.8412 63.2703 39.8209C63.1703 39.8005 63.0718 39.7709 62.9781 39.7318C62.8843 39.6927 62.7921 39.6443 62.7078 39.5881C62.6234 39.5318 62.5421 39.4662 62.4703 39.3943C62.3984 39.3224 62.3328 39.2412 62.2765 39.1568C62.2203 39.0709 62.1718 38.9802 62.1328 38.8865C62.0937 38.7927 62.064 38.6943 62.0437 38.5943C62.0234 38.4927 62.0125 38.3912 62.0125 38.2896C62.0125 38.1865 62.0234 38.0849 62.0437 37.9834C62.064 37.8834 62.0937 37.7849 62.1328 37.6912C62.1718 37.5974 62.2203 37.5068 62.2765 37.4209C62.3328 37.3365 62.3984 37.2552 62.4703 37.1834C62.5421 37.1113 62.6234 37.0474 62.7078 36.9896C62.792 36.9334 62.8843 36.8849 62.9781 36.8459C63.0718 36.8068 63.1703 36.7771 63.2703 36.7568C63.4718 36.7162 63.6796 36.7162 63.8812 36.7568C63.9812 36.7771 64.0781 36.8068 64.1734 36.8459C64.2671 36.8849 64.3578 36.9334 64.4421 36.9896C64.5281 37.0474 64.6078 37.1115 64.6796 37.1834C64.7515 37.2552 64.8171 37.3365 64.875 37.4209C64.9312 37.5068 64.9796 37.5974 65.0187 37.6912C65.0578 37.7849 65.0875 37.8834 65.1078 37.9834C65.1281 38.0849 65.1375 38.1865 65.1375 38.2896C65.1375 38.7005 64.9718 39.1021 64.6796 39.3943C64.6078 39.4662 64.5281 39.5318 64.4421 39.5881C64.3578 39.6443 64.2671 39.6927 64.1734 39.7318C64.0781 39.7709 63.9812 39.8005 63.8812 39.8209C63.7796 39.8412 63.6781 39.8521 63.575 39.8521Z" fill="#323232"/>
<path d="M17.1141 69.2459C17.0125 69.2459 16.9094 69.2349 16.8094 69.2146C16.7094 69.1943 16.611 69.1646 16.5172 69.1255C16.4219 69.0865 16.3313 69.038 16.2469 68.9818C16.161 68.9255 16.0813 68.8599 16.0094 68.788C15.9375 68.716 15.8719 68.6349 15.8157 68.5505C15.7594 68.4646 15.711 68.374 15.6719 68.2802C15.6329 68.1865 15.6032 68.088 15.5829 67.988C15.5625 67.8865 15.5516 67.7849 15.5516 67.6834C15.5516 67.2709 15.7188 66.8677 16.0094 66.5771C16.0813 66.5052 16.161 66.4412 16.2469 66.3834C16.3313 66.3271 16.4219 66.2787 16.5172 66.2396C16.611 66.2005 16.7094 66.1709 16.8094 66.1505C17.0108 66.1099 17.2172 66.1099 17.4188 66.1505C17.5188 66.1709 17.6172 66.2005 17.711 66.2396C17.8063 66.2787 17.8969 66.3271 17.9813 66.3834C18.0672 66.4412 18.1469 66.5052 18.2188 66.5771C18.5094 66.8677 18.6766 67.2709 18.6766 67.6834C18.6766 67.7849 18.6657 67.8865 18.6454 67.988C18.6266 68.088 18.5954 68.1865 18.5563 68.2802C18.5172 68.374 18.4704 68.4646 18.4141 68.5505C18.3563 68.6349 18.2907 68.7162 18.2188 68.788C18.1469 68.8599 18.0672 68.9255 17.9813 68.9818C17.8969 69.038 17.8063 69.0865 17.711 69.1255C17.6172 69.1646 17.5188 69.1943 17.4188 69.2146C17.3188 69.2349 17.2157 69.2459 17.1141 69.2459Z" fill="#323232"/>
<path d="M74.9519 44.0998H70.5397V50.5624C70.5397 53.5568 68.1122 55.9844 65.1177 55.9844C62.1231 55.9844 59.6956 53.557 59.6956 50.5624V54.6823C60.9977 55.8937 62.4985 56.9052 65.0046 56.9052C69.8883 56.9052 72.0788 51.7865 75.7103 50.9866C77.3046 50.6354 78.4375 49.2177 78.4375 47.5854C78.4375 45.6602 76.8769 44.0998 74.9519 44.0998Z" fill="#1BCF92"/>
<path d="M43.4294 55.9844C40.4349 55.9844 38.0074 53.557 38.0074 50.5624V44.0998H21.9756C21.6775 44.7482 21.51 45.4691 21.51 46.2296C21.51 48.4194 22.9024 50.3444 24.9305 51.0484C25.6589 50.7802 26.495 50.6204 27.49 50.6204C33.737 50.6204 33.737 56.9052 39.985 56.9052H40.0152C41.5256 56.9052 42.6709 56.5379 43.6277 55.9809C43.5619 55.9832 43.4958 55.9844 43.4294 55.9844Z" fill="#1BCF92"/>
<path d="M48.8514 56.0473V51.5723C48.8156 51.5935 48.7801 51.6149 48.7448 51.6366C48.2591 54.054 46.1656 55.8896 43.6275 55.9808C42.6708 56.5379 41.5255 56.9052 40.015 56.9052H39.9848C33.7369 56.9052 33.7369 50.6204 27.4898 50.6204C25.488 50.6204 24.128 51.2662 22.998 52.1432C24.3956 57.5085 29.2726 61.4693 35.0758 61.4693H54.2734C51.2791 61.4693 48.8514 59.0418 48.8514 56.0473Z" fill="#D04E42"/>
<path d="M75.0948 51.1665C71.8168 52.3604 69.6062 56.9051 65.0043 56.9051C62.4983 56.9051 60.9975 55.8935 59.6954 54.6821V56.0471C59.6954 59.0416 57.2679 61.4691 54.2734 61.4691H72.477C75.5054 61.4691 77.9604 59.0141 77.9604 55.9857C77.9606 53.9055 76.802 52.0957 75.0948 51.1665Z" fill="#D04E42"/>
<path d="M44.8042 50.5624V44.0998H38.0073V50.5624C38.0073 53.557 40.4348 55.9845 43.4294 55.9845C44.7164 55.9845 45.8979 55.5352 46.8278 54.786C45.5942 53.7921 44.8042 52.2699 44.8042 50.5624Z" fill="white"/>
<path d="M46.8278 54.786C47.4144 55.2587 48.1009 55.6119 48.8514 55.8082V50.5626C48.8514 52.2699 48.0614 53.7921 46.8278 54.786Z" fill="#FFD15C"/>
<path d="M44.8042 44.0998V50.5624C44.8042 52.2699 45.5942 53.7921 46.8278 54.786C48.0614 53.7921 48.8514 52.2699 48.8514 50.5624V55.808V56.0473C48.8514 59.0418 51.2789 61.4693 54.2734 61.4693C55.5604 61.4693 56.742 61.0201 57.6719 60.2709C58.9054 59.277 59.6954 57.7548 59.6954 56.0473V50.5624C59.6954 53.557 62.1229 55.9845 65.1175 55.9845C65.5926 55.9845 66.0533 55.9229 66.4923 55.8082C67.2428 55.6121 67.9294 55.2587 68.5159 54.786C69.7495 53.7921 70.5395 52.2699 70.5395 50.5624V44.0998H44.8042Z" fill="#FFD15C"/>
<path d="M54.0794 9.69118L40 1.56243V17.8199L54.0794 9.69118Z" fill="#279FC9"/>
<path d="M80 47.5854C80 45.3643 78.5581 43.4737 76.5612 42.8004C76.3067 31.2137 66.8023 21.8662 55.1556 21.8662H41.5625V18.7221L54.8606 11.0443C55.3441 10.7652 55.6419 10.2495 55.6419 9.69117C55.6419 9.13289 55.3441 8.61711 54.8606 8.33805L40.7812 0.209297C40.2978 -0.0697656 39.7022 -0.0697656 39.2188 0.209297C38.7353 0.488359 38.4375 1.00414 38.4375 1.56242V21.8662H24.8442C13.1975 21.8662 3.69313 31.2135 3.43859 42.8002C1.44187 43.4737 0 45.3643 0 47.5854C0 49.1934 0.778281 50.6709 2.00328 51.6055C1.03094 52.831 0.476875 54.3671 0.476875 55.9859C0.476875 58.3474 1.64484 60.4413 3.43328 61.7204V65.8869C3.43328 72.2288 8.59281 77.3884 14.9347 77.3884H65.0652C71.407 77.3884 76.5666 72.2288 76.5666 65.8869V61.7204C78.3552 60.4413 79.523 58.3474 79.523 55.9859C79.523 54.3671 78.9691 52.831 77.9966 51.6055C79.2219 50.6709 80 49.1932 80 47.5854ZM41.5625 4.26883L50.9544 9.69133L41.5625 15.1137V4.26883ZM24.8442 24.9912H55.1556C64.9905 24.9912 73.0369 32.7963 73.4269 42.5373H6.57312C6.60969 41.6234 6.71375 40.7263 6.88016 39.8513H57.2616C58.1245 39.8513 58.8241 39.1518 58.8241 38.2888C58.8241 37.4259 58.1245 36.7263 57.2616 36.7263H7.77156C10.4114 29.8698 17.0689 24.9912 24.8442 24.9912ZM72.477 59.9068H60.0922C60.5544 59.2123 60.8956 58.4305 61.0856 57.5921C62.1317 58.1137 63.4013 58.4676 65.0044 58.4676C68.3894 58.4676 70.6973 56.4429 72.5517 54.8162C73.3795 54.0901 74.1716 53.3952 74.9586 52.9495C75.8603 53.687 76.398 54.7963 76.398 55.9859C76.3981 58.1479 74.6391 59.9068 72.477 59.9068ZM68.9772 50.5624C68.9772 52.6905 67.2458 54.422 65.1177 54.422C62.9895 54.422 61.2581 52.6905 61.2581 50.5624C61.2581 49.6995 60.5586 48.9999 59.6956 48.9999C58.8327 48.9999 58.1331 49.6995 58.1331 50.5624V56.0473C58.1331 58.1754 56.4017 59.9068 54.2736 59.9068C52.1455 59.9068 50.4141 58.1754 50.4141 56.0473V50.5624C50.4141 49.6995 49.7145 48.9999 48.8516 48.9999C47.9886 48.9999 47.2891 49.6995 47.2891 50.5624C47.2891 52.6359 45.6456 54.3326 43.593 54.4185C43.5762 54.4188 43.5595 54.4195 43.5428 54.4202C43.5052 54.4213 43.4673 54.422 43.4295 54.422C41.3014 54.422 39.57 52.6905 39.57 50.5624V45.6623H68.9773V50.5624H68.9772ZM3.60188 55.9859C3.60188 54.7963 4.13953 53.687 5.04125 52.9495C5.82844 53.3952 6.62031 54.0901 7.44812 54.8162C9.30266 56.443 11.6106 58.4676 14.9955 58.4676C18.7689 58.4676 20.755 56.4696 22.3508 54.8641C23.84 53.366 25.0162 52.1827 27.4898 52.1827C29.9633 52.1827 31.1394 53.366 32.6286 54.864C34.2245 56.4695 36.2106 58.4676 39.9848 58.4676H40.015C41.5217 58.4676 42.8545 58.1562 44.0766 57.5171C45.2594 57.4079 46.3578 57.0024 47.2964 56.3762C47.357 57.677 47.7752 58.886 48.4545 59.9068H7.52281C5.36094 59.9068 3.60188 58.1479 3.60188 55.9859ZM5.04812 45.6623H36.4448V50.5624C36.4448 52.2709 37.0616 53.838 38.0839 55.053C36.7853 54.613 35.8927 53.7149 34.845 52.661C33.2492 51.0557 31.2633 49.0579 27.49 49.0579C23.7164 49.0579 21.7303 51.0559 20.1345 52.6613C18.6453 54.1595 17.4692 55.3427 14.9956 55.3427C12.7872 55.3427 11.1948 53.946 9.50906 52.4671C8.27594 51.3855 7.00109 50.267 5.43984 49.6984C5.30578 49.6495 5.16703 49.6198 5.0275 49.6088C4.90391 49.5427 4.76938 49.4923 4.62594 49.4605C3.75625 49.2691 3.125 48.4804 3.125 47.5854C3.125 46.5249 3.98766 45.6623 5.04812 45.6623ZM73.4416 63.0318V65.8871C73.4416 65.9651 73.4405 66.0427 73.4383 66.1201H23.428C22.565 66.1201 21.8655 66.8196 21.8655 67.6826C21.8655 68.5455 22.565 69.2451 23.428 69.2451H72.7389C71.4422 72.197 68.4905 74.2635 65.0652 74.2635H14.9347C10.3159 74.2635 6.55828 70.5059 6.55828 65.8871V63.0318H73.4416ZM75.3741 49.4607C75.2305 49.4924 75.0958 49.5429 74.9722 49.609C74.8328 49.6199 74.6941 49.6496 74.5602 49.6985C73.6523 50.0291 72.8412 50.5459 72.0789 51.1329C72.0942 50.9448 72.102 50.7545 72.102 50.5624V45.6623H74.9517C76.0122 45.6623 76.8748 46.5249 76.8748 47.5854C76.875 48.4804 76.2438 49.2691 75.3741 49.4607Z" fill="#323232"/>
</svg>
